<svg xmlns="http://www.w3.org/2000/svg" xmlns:xlink="http://www.w3.org/1999/xlink" width="114.104" height="133" viewBox="0 0 114.104 133"><defs><clipPath id="a"><rect width="114.104" height="133" fill="none"/></clipPath></defs><g clip-path="url(#a)"><path d="M13.96,188.4c-3.9,0-6.532-3.086-6.532-7.928,0-4.789,2.529-7.822,6.585-7.822,3.951,0,5.953,2.873,4.952,7.875h7.059c2.318-8.461-3.477-14.1-12.011-14.1S0,172.015,0,180.529c0,8.461,5.531,14.1,13.855,14.1,7.375,0,12.064-4.363,13.486-10.216h-7.8A5.841,5.841,0,0,1,13.96,188.4" transform="translate(0 -101.964)" fill="#092352"/><path d="M92.042,188.4c-3.793,0-5.953-2.288-6.479-6.119h18.491c2.792-8.621-2.529-15.857-12.116-15.857-8.376,0-13.908,5.64-13.908,14.1s5.426,14.1,13.908,14.1c6.848,0,11.748-3.671,13.328-9.418h-7.8c-.843,2.075-2.792,3.192-5.426,3.192m-.158-15.963c3.74,0,5.584,2.128,5.268,5.322H85.668c.685-3.459,2.845-5.322,6.216-5.322" transform="translate(-48.107 -101.964)" fill="#092352"/><path d="M163.738,174.835c0-1.49,1.58-2.714,4.267-2.714,3.213,0,5.215,1.756,4.583,4.363h6.953c1.054-6.279-4.32-10.057-11.537-10.057-6.69,0-11.642,3.3-11.642,8.78,0,10.11,16.7,6.545,16.7,11.068,0,1.6-1.949,2.661-4.741,2.661-3.477,0-5.531-1.65-5.374-4.31h-6.9c-.211,6.172,4.636,10,12.274,10,7.112,0,12.116-3.246,12.116-8.78,0-10.163-16.7-6.332-16.7-11.015" transform="translate(-96.203 -101.964)" fill="#092352"/><path d="M245.97,185.212c-.843,2.075-2.792,3.192-5.426,3.192-3.793,0-5.953-2.288-6.479-6.119h18.491c2.792-8.621-2.529-15.857-12.117-15.857-8.376,0-13.907,5.64-13.907,14.1s5.426,14.1,13.907,14.1c6.848,0,11.748-3.671,13.328-9.418Zm-5.584-12.771c3.74,0,5.584,2.128,5.268,5.322H234.17c.685-3.459,2.845-5.322,6.216-5.322" transform="translate(-139.663 -101.964)" fill="#092352"/><rect width="28.116" height="1.676" transform="translate(0.393 117.501)" fill="#092352"/><rect width="28.116" height="1.676" transform="translate(85.077 117.501)" fill="#e84740"/><path d="M1.024,265.8a4.229,4.229,0,0,1,4.334-4.476c2.422,0,4.114,1.647,3.749,3.824H7.293a1.834,1.834,0,0,0-1.911-2.324c-1.558,0-2.544,1.315-2.544,2.976,0,1.734,1.047,3,2.568,3a2.173,2.173,0,0,0,2.215-1.881H9.484A3.855,3.855,0,0,1,5.406,270.3a4.252,4.252,0,0,1-4.382-4.5" transform="translate(-0.631 -160.101)" fill="#092352"/><path d="M24.8,270.927a3.05,3.05,0,0,1,3.2-3.258,3.259,3.259,0,0,1,0,6.516,3.05,3.05,0,0,1-3.2-3.258m4.686,0c0-1.107-.6-1.82-1.485-1.82s-1.485.714-1.485,1.82.6,1.819,1.485,1.819,1.485-.725,1.485-1.819" transform="translate(-15.291 -163.99)" fill="#092352"/><path d="M49.458,270.5V274H47.8v-3.492c0-.578,0-1.451-.949-1.451-.791,0-1.363.774-1.363,1.918V274H43.846v-6.148H45.49v1.095a2.092,2.092,0,0,1,2-1.279c1.972,0,1.972,1.98,1.972,2.828" transform="translate(-27.032 -163.99)" fill="#092352"/><path d="M60.574,271.874h1.595c-.037.615.438,1,1.242,1,.645,0,1.1-.246,1.1-.615,0-1.045-3.858-.221-3.858-2.558,0-1.266,1.144-2.029,2.69-2.029,1.668,0,2.909.873,2.666,2.324H64.4c.146-.6-.317-1.008-1.059-1.008-.621,0-.986.283-.986.627,0,1.082,3.859.2,3.859,2.545,0,1.279-1.157,2.029-2.8,2.029-1.765,0-2.885-.885-2.837-2.312" transform="translate(-37.344 -163.99)" fill="#092352"/><path d="M83.155,272.009a2.984,2.984,0,0,1-3.08,2.176,3.259,3.259,0,0,1,0-6.517,2.688,2.688,0,0,1,2.8,3.664H78.6a1.434,1.434,0,0,0,1.5,1.414,1.246,1.246,0,0,0,1.254-.737Zm-4.528-1.722H81.28c.073-.737-.353-1.229-1.218-1.229a1.368,1.368,0,0,0-1.436,1.229" transform="translate(-47.387 -163.99)" fill="#092352"/><path d="M95.368,261.966a.986.986,0,1,1,.986,1,.972.972,0,0,1-.986-1m.146,1.783H97.17V269.9H95.514Z" transform="translate(-58.797 -159.886)" fill="#092352"/><rect width="1.643" height="8.607" transform="translate(39.663 101.404)" fill="#092352"/><path d="M124,268.411a2.96,2.96,0,0,1-3.067,2.176,3.258,3.258,0,0,1,0-6.516,2.688,2.688,0,0,1,2.8,3.664h-4.273a1.434,1.434,0,0,0,1.5,1.414,1.245,1.245,0,0,0,1.254-.738Zm-4.516-1.722h2.654c.072-.737-.353-1.229-1.218-1.229a1.368,1.368,0,0,0-1.436,1.229m1.716-3.246h-1.254l.852-1.647h1.777Z" transform="translate(-72.575 -160.392)" fill="#092352"/><path d="M135.747,270.927a3.047,3.047,0,0,1,3.238-3.258c1.972,0,3.311,1.3,2.775,3.258h-1.631c.231-1.156-.231-1.82-1.144-1.82-.937,0-1.522.7-1.522,1.808s.609,1.832,1.509,1.832a1.35,1.35,0,0,0,1.29-.922h1.8a3.217,3.217,0,0,1-6.318-.9" transform="translate(-83.692 -163.99)" fill="#092352"/><path d="M153.777,270.927a3.2,3.2,0,1,1,3.2,3.258,3.051,3.051,0,0,1-3.2-3.258m4.687,0c0-1.107-.6-1.82-1.485-1.82s-1.485.714-1.485,1.82.6,1.819,1.485,1.819,1.485-.725,1.485-1.819" transform="translate(-94.808 -163.99)" fill="#092352"/><path d="M178.437,270.5V274h-1.655v-3.492c0-.578,0-1.451-.95-1.451-.791,0-1.363.774-1.363,1.918V274h-1.643v-6.148h1.643v1.095a2.092,2.092,0,0,1,2-1.279c1.972,0,1.972,1.98,1.972,2.828" transform="translate(-106.552 -163.99)" fill="#092352"/><path d="M189.586,270.927a3.2,3.2,0,1,1,3.2,3.258,3.05,3.05,0,0,1-3.2-3.258m4.686,0c0-1.107-.6-1.82-1.485-1.82s-1.485.714-1.485,1.82.6,1.819,1.485,1.819,1.485-.725,1.485-1.819" transform="translate(-116.885 -163.99)" fill="#092352"/><path d="M217.872,270.188V274h-1.655v-3.738c0-.689-.292-1.156-.852-1.156-.742,0-1.266.725-1.266,1.845V274h-1.655v-3.738c0-.725-.3-1.2-.877-1.2-.73,0-1.29.737-1.29,1.918V274h-1.643v-6.148h1.643v1.095a2.051,2.051,0,0,1,1.935-1.279,1.812,1.812,0,0,1,1.79,1.291,2.031,2.031,0,0,1,1.948-1.291c1.266,0,1.923.935,1.923,2.52" transform="translate(-128.628 -163.99)" fill="#092352"/><path d="M235.3,261.966a.986.986,0,1,1,.986,1,.972.972,0,0,1-.986-1m.146,1.783H237.1V269.9h-1.655Z" transform="translate(-145.068 -159.886)" fill="#092352"/><path d="M249.017,267.853v8.607h-1.655v-3.369a2.355,2.355,0,0,1-2.07,1.094c-1.631,0-2.787-1.3-2.787-3.246,0-1.967,1.168-3.27,2.8-3.27a2.347,2.347,0,0,1,2.057,1.094v-.91Zm-1.643,3.074a1.594,1.594,0,1,0-1.57,1.832,1.615,1.615,0,0,0,1.57-1.832" transform="translate(-149.512 -163.99)" fill="#092352"/><path d="M267.844,268.145v6.148h-1.655v-1.008a2.168,2.168,0,0,1-1.948,1.156c-1.7,0-1.96-1.758-1.96-2.84v-3.455h1.655V271.6c0,.762.183,1.451.937,1.451.8,0,1.315-.738,1.315-1.808v-3.1Z" transform="translate(-161.704 -164.282)" fill="#092352"/><path d="M285.431,272.009a2.984,2.984,0,0,1-3.08,2.176,3.259,3.259,0,0,1,0-6.517,2.688,2.688,0,0,1,2.8,3.664h-4.273a1.434,1.434,0,0,0,1.5,1.414,1.246,1.246,0,0,0,1.254-.737Zm-4.528-1.722h2.654c.073-.737-.353-1.229-1.218-1.229a1.368,1.368,0,0,0-1.436,1.229" transform="translate(-172.097 -163.99)" fill="#092352"/><path d="M87.224,301.311h1.594c-.036.615.438,1,1.242,1,.645,0,1.1-.246,1.1-.614,0-1.045-3.859-.222-3.859-2.558,0-1.267,1.144-2.029,2.69-2.029,1.668,0,2.909.873,2.665,2.324H91.046c.146-.6-.316-1.009-1.059-1.009-.621,0-.986.283-.986.627,0,1.082,3.859.2,3.859,2.546,0,1.279-1.156,2.028-2.8,2.028-1.765,0-2.885-.885-2.836-2.312" transform="translate(-53.775 -182.025)" fill="#092352"/><path d="M103.51,300.365a3.2,3.2,0,1,1,3.2,3.258,3.051,3.051,0,0,1-3.2-3.258m4.687,0c0-1.106-.6-1.819-1.485-1.819s-1.485.713-1.485,1.819.6,1.82,1.485,1.82,1.485-.726,1.485-1.82" transform="translate(-63.817 -182.026)" fill="#092352"/><path d="M121.859,300.365a3.047,3.047,0,0,1,3.238-3.258c1.972,0,3.311,1.3,2.775,3.258h-1.631c.231-1.155-.231-1.819-1.144-1.819-.937,0-1.522.7-1.522,1.807s.609,1.832,1.509,1.832a1.35,1.35,0,0,0,1.29-.922h1.8a3.217,3.217,0,0,1-6.318-.9" transform="translate(-75.13 -182.026)" fill="#092352"/><path d="M140.335,291.4a.986.986,0,1,1,.986,1,.971.971,0,0,1-.986-1m.146,1.783h1.655v6.148h-1.655Z" transform="translate(-86.521 -177.922)" fill="#092352"/><path d="M153.291,299.959v3.479h-1.485v-1.057a2.371,2.371,0,0,1-2.192,1.242,1.871,1.871,0,0,1-2.106-1.844c0-1.242,1.084-1.992,2.8-1.992a6.447,6.447,0,0,1,1.327.136c-.012-.812-.3-1.4-1.168-1.4-.621,0-.986.308-.877.861h-1.655c-.316-1.414.937-2.274,2.544-2.274a2.579,2.579,0,0,1,2.812,2.853m-1.607,1.155a4.31,4.31,0,0,0-1.217-.184c-.913,0-1.3.308-1.3.775,0,.43.316.652.828.652a1.8,1.8,0,0,0,1.692-1.242" transform="translate(-90.944 -182.025)" fill="#092352"/><rect width="1.643" height="8.607" transform="translate(63.492 112.806)" fill="#092352"/><path d="M186.15,301.446a2.983,2.983,0,0,1-3.08,2.176,3.259,3.259,0,0,1,0-6.517,2.688,2.688,0,0,1,2.8,3.664H181.6a1.434,1.434,0,0,0,1.5,1.415,1.246,1.246,0,0,0,1.254-.738Zm-4.528-1.721h2.654c.073-.738-.353-1.23-1.218-1.23a1.368,1.368,0,0,0-1.436,1.23" transform="translate(-110.887 -182.025)" fill="#092352"/><path d="M199.891,296.364v2.681c0,.442.122.787.743.787a1.632,1.632,0,0,0,.876-.271v1.451a2.5,2.5,0,0,1-1.193.258,1.911,1.911,0,0,1-2.081-2.213v-2.693H197.03v-1.426h1.205v-1.672h1.655v1.672h1.741v1.426Z" transform="translate(-121.475 -179.673)" fill="#092352"/><path d="M32.443,330.885a2.984,2.984,0,0,1-3.08,2.176,3.259,3.259,0,0,1,0-6.517,2.688,2.688,0,0,1,2.8,3.664H27.89a1.435,1.435,0,0,0,1.5,1.414,1.246,1.246,0,0,0,1.254-.737Zm-4.528-1.722h2.654c.073-.738-.353-1.229-1.218-1.229a1.367,1.367,0,0,0-1.436,1.229" transform="translate(-16.122 -200.061)" fill="#092352"/><path d="M50.522,329.372v3.5H48.866v-3.492c0-.578,0-1.451-.949-1.451-.791,0-1.363.774-1.363,1.918v3.025H44.91v-6.148h1.644v1.095a2.092,2.092,0,0,1,2-1.279c1.972,0,1.972,1.98,1.972,2.828" transform="translate(-27.688 -200.061)" fill="#092352"/><path d="M66.766,327.02l-2.13,6.148H62.615L60.5,327.02H62.25l1.376,4.623,1.4-4.623Z" transform="translate(-37.298 -200.352)" fill="#092352"/><path d="M78.178,320.842a.986.986,0,1,1,.986,1,.972.972,0,0,1-.986-1m.146,1.783H79.98v6.148H78.324Z" transform="translate(-48.199 -195.957)" fill="#092352"/><path d="M91.11,328.45a3.255,3.255,0,0,1-.329,1.414H89.065a2.172,2.172,0,0,0,.353-1.082c0-.48-.256-.787-.657-.787-.6,0-1.035.726-1.035,1.857v3.025H86.083v-6.148h1.644v1.045a1.793,1.793,0,0,1,1.7-1.229,1.7,1.7,0,0,1,1.68,1.906" transform="translate(-53.073 -200.061)" fill="#092352"/><path d="M100.368,329.8a3.2,3.2,0,1,1,3.2,3.258,3.05,3.05,0,0,1-3.2-3.258m4.686,0c0-1.107-.6-1.82-1.485-1.82s-1.485.714-1.485,1.82.6,1.819,1.485,1.819,1.485-.726,1.485-1.819" transform="translate(-61.88 -200.061)" fill="#092352"/><path d="M125.027,329.372v3.5h-1.655v-3.492c0-.578,0-1.451-.95-1.451-.791,0-1.363.774-1.363,1.918v3.025h-1.643v-6.148h1.643v1.095a2.093,2.093,0,0,1,2-1.279c1.972,0,1.972,1.98,1.972,2.828" transform="translate(-73.623 -200.061)" fill="#092352"/><path d="M142.486,329.372v3.5H140.83v-3.492c0-.578,0-1.451-.95-1.451-.791,0-1.363.774-1.363,1.918v3.025h-1.643v-6.148h1.643v1.095a2.093,2.093,0,0,1,2-1.279c1.972,0,1.972,1.98,1.972,2.828" transform="translate(-84.387 -200.061)" fill="#092352"/><path d="M159.929,330.885a2.984,2.984,0,0,1-3.08,2.176,3.259,3.259,0,0,1,0-6.517,2.688,2.688,0,0,1,2.8,3.664h-4.273a1.434,1.434,0,0,0,1.5,1.414,1.246,1.246,0,0,0,1.254-.737Zm-4.528-1.722h2.654c.073-.738-.353-1.229-1.217-1.229a1.368,1.368,0,0,0-1.436,1.229" transform="translate(-94.721 -200.061)" fill="#092352"/><path d="M181.635,329.064v3.812H179.98v-3.738c0-.689-.293-1.156-.852-1.156-.743,0-1.266.726-1.266,1.845v3.049h-1.655v-3.738c0-.725-.3-1.2-.877-1.2-.73,0-1.29.737-1.29,1.918v3.025H172.4v-6.148h1.643v1.095a2.051,2.051,0,0,1,1.936-1.279,1.812,1.812,0,0,1,1.789,1.291,2.031,2.031,0,0,1,1.948-1.291c1.266,0,1.923.935,1.923,2.52" transform="translate(-106.287 -200.061)" fill="#092352"/><path d="M204.911,330.885a2.984,2.984,0,0,1-3.08,2.176,3.259,3.259,0,0,1,0-6.517,2.688,2.688,0,0,1,2.8,3.664h-4.273a1.434,1.434,0,0,0,1.5,1.414,1.246,1.246,0,0,0,1.254-.737Zm-4.528-1.722h2.654c.073-.738-.353-1.229-1.218-1.229a1.368,1.368,0,0,0-1.436,1.229" transform="translate(-122.454 -200.061)" fill="#092352"/><path d="M222.99,329.372v3.5h-1.655v-3.492c0-.578,0-1.451-.95-1.451-.791,0-1.363.774-1.363,1.918v3.025h-1.643v-6.148h1.643v1.095a2.093,2.093,0,0,1,2-1.279c1.972,0,1.972,1.98,1.972,2.828" transform="translate(-134.02 -200.061)" fill="#092352"/><path d="M236.175,325.8v2.68c0,.443.122.787.743.787a1.635,1.635,0,0,0,.876-.27v1.451a2.493,2.493,0,0,1-1.193.258,1.911,1.911,0,0,1-2.081-2.213V325.8h-1.205v-1.426h1.205V322.7h1.655v1.672h1.741V325.8Z" transform="translate(-143.845 -197.708)" fill="#092352"/><path d="M252.46,329.4v3.479h-1.485v-1.058a2.369,2.369,0,0,1-2.191,1.242,1.871,1.871,0,0,1-2.106-1.844c0-1.242,1.083-1.992,2.8-1.992a6.48,6.48,0,0,1,1.327.135c-.012-.811-.3-1.4-1.168-1.4-.621,0-.986.308-.877.861H247.1c-.317-1.414.937-2.275,2.544-2.275a2.579,2.579,0,0,1,2.812,2.853m-1.607,1.155a4.311,4.311,0,0,0-1.217-.184c-.913,0-1.3.308-1.3.775,0,.43.316.651.828.651a1.8,1.8,0,0,0,1.692-1.242" transform="translate(-152.084 -200.061)" fill="#092352"/><rect width="1.643" height="8.607" transform="translate(101.52 124.209)" fill="#092352"/><path d="M79.5,50.06l-.156.03V84.515l.171.019c1.333.143,2.716.28,4.109.407l.209.019V49.3l-.222.036c-1.373.221-2.757.466-4.112.727" transform="translate(-48.919 -30.203)" fill="#092352"/><path d="M50.81,56.119l-.141.04V86.566l.163.025c1.515.229,2.859.423,4.109.591l.217.029V54.978l-.237.058c-1.318.325-2.7.689-4.112,1.083" transform="translate(-31.239 -33.683)" fill="#092352"/><path d="M111.31,46.057l-.173.017V83.33l.181.011c1.425.085,2.807.157,4.108.215l.2.009V45.693l-.205.015c-1.443.1-2.788.216-4.111.349" transform="translate(-68.519 -27.995)" fill="#092352"/><path d="M206.724,49.334,206.5,49.3V84.96l.209-.019c1.394-.127,2.776-.264,4.109-.407l.171-.018V50.091l-.156-.03c-1.356-.261-2.739-.506-4.112-.727" transform="translate(-127.315 -30.203)" fill="#092352"/><path d="M239.526,56.119c-1.411-.394-2.794-.758-4.112-1.083l-.237-.058V87.211l.217-.029c1.25-.168,2.594-.362,4.109-.591l.163-.025V56.159Z" transform="translate(-144.994 -33.683)" fill="#092352"/><path d="M174.916,45.708l-.205-.015V83.564l.2-.009c1.3-.058,2.684-.13,4.109-.215l.18-.011V46.074l-.173-.017c-1.323-.133-2.667-.247-4.111-.349" transform="translate(-107.715 -27.995)" fill="#092352"/><path d="M143.112,44.841l-.188,0V83.493h.557c1.418,0,2.616-.007,3.743-.023l.189,0V44.831l-.189,0c-1.294-.017-2.639-.013-4.112.012" transform="translate(-88.117 -27.459)" fill="#092352"/><path d="M112.88.695V5.033A144.031,144.031,0,0,1,140.411,5V.608A146.1,146.1,0,0,0,112.88.695" transform="translate(-69.594 -0.001)" fill="#092352"/><path d="M88.291,22.37a146.389,146.389,0,0,0-37.622,5.094v4.4a139.745,139.745,0,0,1,75.243,0v-4.4A146.388,146.388,0,0,0,88.291,22.37" transform="translate(-31.239 -13.706)" fill="#092352"/></g></svg>