<?xml version="1.0" encoding="UTF-8" standalone="no"?>
<svg
   xmlns:dc="http://purl.org/dc/elements/1.1/"
   xmlns:cc="http://creativecommons.org/ns#"
   xmlns:rdf="http://www.w3.org/1999/02/22-rdf-syntax-ns#"
   xmlns:svg="http://www.w3.org/2000/svg"
   xmlns="http://www.w3.org/2000/svg"
   viewBox="0 0 700 550.09797"
   height="550.09796"
   width="700"
   xml:space="preserve"
   id="svg833"
   version="1.1"><metadata
     id="metadata839"><rdf:RDF><cc:Work
         rdf:about=""><dc:format>image/svg+xml</dc:format><dc:type
           rdf:resource="http://purl.org/dc/dcmitype/StillImage" /><dc:title></dc:title></cc:Work></rdf:RDF></metadata><defs
     id="defs837" /><g
     transform="matrix(1.3333333,0,0,-1.3333333,-603.02332,170.07721)"
     id="g841"><g
       id="g1080"><path
         d="m 763.24213,112.06223 c -8.49992,0.15283 -16.93434,-1.62284 -23.06912,0.47303 -5.1669,-12.742597 2.13226,-26.205648 -1.45546,-27.501011 -0.2256,-0.08005 -0.45848,-0.10916 -0.70591,-0.08733 -3.81331,0.320202 -10.69766,11.636442 -10.69766,11.636442 0.13099,-9.707951 13.02641,-22.938127 13.02641,-22.938127 2.59073,0 14.76569,0.10916 20.90047,1.964877 0,0 -4.41005,27.857599 2.00127,36.452119"
         style="fill:#ffffff;fill-opacity:1;fill-rule:nonzero;stroke:none;stroke-width:7.27732"
         id="path883" /><path
         d="m 764.1074,111.9931 c -0.55307,0.0437 -0.866,0.0728 -0.866,0.0728 -6.41132,-8.6018 -2.00126,-36.452118 -2.00126,-36.452118 5.61081,2.263248 10.07181,2.823602 13.55765,2.525232 3.63139,-0.305648 6.21484,-1.528238 7.91773,-2.685333 1.67379,-1.127985 2.47429,-2.183197 2.61256,-2.197752 0.0728,-0.0073 -0.0437,0.276538 -0.30565,0.975161 -1.79022,4.664765 3.22386,8.099663 3.22386,8.099663 0,0 5.86552,5.392497 2.20503,11.731047 -4.73026,8.06328 1.98671,6.18573 -1.11343,9.6934 -5.42161,6.20755 -21.33712,7.91045 -25.23049,8.23793"
         style="fill:#e3013e;fill-opacity:1;fill-rule:nonzero;stroke:none;stroke-width:7.27732"
         id="path885" /><path
         d="m 721.59473,123.74816 c 6.31672,-7.87407 18.57901,-11.21436 18.57901,-11.21436 -5.17418,-12.742593 2.12498,-26.205643 -1.46274,-27.501007 -0.21832,-0.08733 -0.4512,-0.10916 -0.69863,-0.08733 -3.81332,0.320203 -10.69766,11.629165 -10.69766,11.629165 0.13099,-9.700674 13.01913,-22.93085 13.01913,-22.93085 -12.93181,0 -22.42144,13.004579 -29.45861,8.798286 V 127.234 c 3.2748,1.06249 8.30343,-0.58947 10.7195,-3.48584"
         style="fill:#004b98;fill-opacity:1;fill-rule:nonzero;stroke:none;stroke-width:7.27732"
         id="path887" /></g><g
       id="g1095"><path
         d="m 489.24359,-245.18599 c -3.81332,2.46701 -8.25249,4.0098 -12.8372,4.0098 -9.56969,0 -16.22844,-7.10267 -16.22844,-17.30547 0,-10.34836 6.93529,-19.56873 17.6184,-19.56873 5.20329,0 10.40658,1.90666 14.78025,4.43917 h 0.20377 l -3.53678,-8.16516 c -3.26025,-1.54279 -6.8698,-2.10315 -10.47935,-2.10315 -16.3667,0 -26.49674,9.27859 -26.49674,24.34265 0,14.56193 10.13004,24.20439 24.34993,24.20439 4.22812,0 8.52902,-0.77868 12.62616,-1.76112 z"
         style="fill:#b3b3b3;fill-opacity:1;fill-rule:nonzero;stroke:none;stroke-width:7.27732"
         id="path889" /><path
         d="m 548.34565,-259.11697 c 0,-14.35089 -11.72377,-24.76474 -25.52886,-24.76474 -13.73231,0 -25.31781,9.98449 -25.31781,24.41542 0,13.36845 11.44723,24.5537 26.00916,24.20439 14.5692,0.0655 24.83751,-11.19253 24.83751,-23.85507 m -42.93622,0.28381 c 0,-9.8535 6.86252,-19.98353 17.75668,-19.98353 10.54484,0 17.26909,7.80857 17.26909,18.29519 0,10.26831 -6.44771,20.19458 -17.40736,20.19458 -10.75589,0 -17.61841,-7.88135 -17.61841,-18.50624"
         style="fill:#b3b3b3;fill-opacity:1;fill-rule:nonzero;stroke:none;stroke-width:7.27732"
         id="path891" /><path
         d="m 562.91485,-273.61195 c 0,-3.93703 -0.0728,-6.75336 3.60228,-8.93655 v -0.21105 h -12.26957 v 0.21105 c 3.67505,2.18319 3.67505,4.99952 3.67505,8.93655 v 28.07592 c 0,3.93703 0,6.75336 -3.60956,8.8565 v 0.21832 h 10.13004 v -0.0728 c 0.26926,-0.83689 0.55308,-1.19348 1.04066,-1.75384 l 0.96788,-1.40452 25.38331,-32.51509 v 26.6714 c 0,3.93703 0.0728,6.75336 -3.60228,8.8565 v 0.21832 h 12.21135 v -0.21832 c -3.60955,-2.10314 -3.60955,-4.91947 -3.60955,-8.8565 v -39.47949 c -4.92675,1.69562 -7.07356,4.01709 -10.12276,8.02689 l -23.79685,30.60843 z"
         style="fill:#b3b3b3;fill-opacity:1;fill-rule:nonzero;stroke:none;stroke-width:7.27732"
         id="path893" /><path
         d="m 634.29594,-244.83595 c -2.70716,2.81632 -7.00806,4.43189 -10.89415,4.43189 -3.95159,0 -8.95111,-1.5428 -8.95111,-6.40405 0,-9.63518 23.86962,-9.49691 23.86962,-22.50876 0,-7.53203 -7.77218,-14.56921 -18.59356,-14.56921 -4.22812,0 -8.46353,0.63313 -12.41511,2.11771 l -2.00855,8.791 c 4.08986,-3.59499 9.77345,-5.84369 15.18778,-5.84369 3.95159,0 9.91899,2.39424 9.91899,7.32099 0,10.97421 -23.86234,9.00205 -23.86234,23.92057 0,8.86378 8.95111,12.24046 17.40736,12.24046 3.47128,0 7.00806,-0.48759 10.34107,-1.5428 z"
         style="fill:#b3b3b3;fill-opacity:1;fill-rule:nonzero;stroke:none;stroke-width:7.27732"
         id="path895" /><path
         d="m 655.20734,-276.8489 8.81284,-0.84417 c 4.57743,-0.42209 9.35864,1.05521 12.82992,4.14807 h 0.21104 l -3.12197,-9.21309 H 645.0118 v 0.21104 c 3.53678,1.26626 3.12198,6.47682 3.12198,9.64246 v 26.52584 c 0,3.23114 0.4148,8.36893 -3.12198,9.70796 v 0.20376 h 22.19584 c 1.17893,0 2.35786,-0.13827 3.26025,0.35659 h 0.21104 v -8.23065 h -0.21104 c -2.15409,2.5325 -4.99225,2.80904 -8.18699,2.80904 -2.42335,0 -4.85398,-0.0728 -7.07356,-0.48758 v -13.09191 h 8.25248 c 1.11343,0 2.21959,0 3.05648,0.42937 h 0.21104 v -7.45926 h -0.21104 c -1.11343,2.03765 -4.02436,1.96488 -6.17845,1.96488 h -5.13051 z"
         style="fill:#b3b3b3;fill-opacity:1;fill-rule:nonzero;stroke:none;stroke-width:7.27732"
         id="path897" /><path
         d="m 686.49255,-246.38238 c 0,3.23113 0.48758,8.36892 -3.04919,9.70795 v 0.21104 h 13.17195 v -0.21104 c -3.464,-1.33903 -3.0492,-6.54232 -3.0492,-9.70795 v -26.52585 c 0,-3.16564 -0.4148,-8.30343 3.0492,-9.64246 v -0.20376 h -13.17195 v 0.20376 c 3.464,1.27353 3.04919,6.47682 3.04919,9.64246 z"
         style="fill:#b3b3b3;fill-opacity:1;fill-rule:nonzero;stroke:none;stroke-width:7.27732"
         id="path899" /><path
         d="m 724.22839,-277.69162 c 4.72299,-0.28381 8.81284,1.33903 12.28413,4.28635 h 0.20376 l -3.60955,-9.35137 h -28.50528 v 0.21105 c 3.5295,1.26625 3.11469,6.46954 3.11469,9.64245 v 26.51857 c 0,3.23841 0.41481,8.3762 -3.11469,9.70795 v 0.21832 h 13.24473 v -0.21832 c -3.5295,-1.33175 -3.0492,-6.54231 -3.0492,-9.70795 v -30.67392 z"
         style="fill:#b3b3b3;fill-opacity:1;fill-rule:nonzero;stroke:none;stroke-width:7.27732"
         id="path901" /><path
         d="m 769.35872,-246.0993 c 0,3.23114 0.4803,8.36893 -3.0492,9.42414 v 0.21104 h 16.98528 c 15.8209,0 25.6744,-8.72551 25.6744,-22.72708 0,-13.85603 -10.47935,-23.56398 -26.01644,-23.56398 h -16.64324 v 0.21104 c 3.45673,2.39424 3.0492,5.77092 3.0492,9.919 z m 7.07356,-31.10328 c 1.66651,-0.34931 3.33301,-0.48758 5.06502,-0.48758 10.3338,0 19.56145,5.47982 19.56145,17.66206 0,12.31324 -6.79703,18.49896 -18.38253,18.49896 -2.08859,0 -4.16263,-0.28381 -6.24394,-0.77139 z"
         style="fill:#b3b3b3;fill-opacity:1;fill-rule:nonzero;stroke:none;stroke-width:7.27732"
         id="path903" /><path
         d="m 814.79106,-250.60032 h 3.18746 v 14.13984 h -3.18746 z"
         style="fill:#b3b3b3;fill-opacity:1;fill-rule:nonzero;stroke:none;stroke-width:7.27732"
         id="path905" /><path
         d="m 838.51877,-276.84526 8.80557,-0.84417 c 4.57743,-0.42937 9.36591,1.05521 12.8372,4.14807 h 0.21104 l -3.12197,-9.21309 h -28.93465 v 0.20376 c 3.54406,1.27353 3.12198,6.47682 3.12198,9.64246 v 26.52585 c 0,3.2384 0.42208,8.36892 -3.12198,9.70795 v 0.21104 h 22.20312 c 1.17893,0 2.35785,-0.13827 3.26024,0.35659 h 0.21104 v -8.23793 h -0.21104 c -2.15409,2.53978 -4.99952,2.81632 -8.18699,2.81632 -2.42335,0 -4.85397,-0.0728 -7.07356,-0.49486 v -13.08463 h 8.25249 c 1.10615,0 2.21958,0 3.0492,0.42937 h 0.21104 v -7.45926 h -0.21104 c -1.10616,2.03765 -4.01709,1.96488 -6.17117,1.96488 h -5.13052 z m 12.76443,53.61204 3.81332,-5.13779 -18.8701,-5.77091 z"
         style="fill:#b3b3b3;fill-opacity:1;fill-rule:nonzero;stroke:none;stroke-width:7.27732"
         id="path907" /><path
         d="m 883.25904,-273.61195 c 0,-4.00981 -0.0655,-6.75336 3.60955,-8.93655 v -0.21105 H 873.129 v 0.21105 c 3.47128,1.33902 3.05648,6.46954 3.05648,9.64245 v 31.37982 h -6.10568 c -2.9837,0 -6.10567,-0.77867 -8.25248,-2.81632 h -0.21105 l 2.42335,8.3762 h 0.21104 c 0.8369,-0.34931 1.73201,-0.34931 2.64167,-0.49486 h 1.73201 25.87088 c 1.17893,0 2.29236,0.0728 3.19475,0.49486 h 0.21104 l -2.22686,-8.3762 h -0.20376 c -0.90239,2.46701 -3.67505,2.81632 -5.96741,2.81632 h -6.24394 z"
         style="fill:#b3b3b3;fill-opacity:1;fill-rule:nonzero;stroke:none;stroke-width:7.27732"
         id="path909" /><path
         d="m 910.18223,-265.3762 -3.60228,-9.91899 c -1.46274,-3.94431 -1.94305,-5.98924 1.38269,-7.24822 v -0.21104 h -12.76443 v 0.21104 c 4.02436,2.03765 5.20329,5.97468 6.73153,9.99177 l 11.5855,29.33489 c 0.96788,2.53251 2.28508,5.4871 -1.04793,6.54232 v 0.21104 h 10.95965 l 14.43093,-36.08825 c 1.59373,-4.01709 2.84543,-7.95412 6.8043,-9.99177 v -0.21104 h -14.22717 v 0.21104 c 3.40579,1.54279 2.85271,2.31419 0.97516,7.24822 l -3.74782,9.91899 z m 8.66729,22.93085 -6.86252,-17.72756 h 13.66682 z"
         style="fill:#b3b3b3;fill-opacity:1;fill-rule:nonzero;stroke:none;stroke-width:7.27732"
         id="path911" /><path
         d="m 962.63281,-273.61195 c 0,-4.00981 -0.0728,-6.75336 3.60228,-8.93655 v -0.21105 h -13.72503 v 0.21105 c 3.464,1.33902 3.04919,6.46954 3.04919,9.64245 v 31.37982 h -6.10567 c -2.9837,0 -6.10568,-0.77867 -8.25249,-2.81632 h -0.21104 l 2.42335,8.3762 h 0.21104 c 0.83689,-0.34931 1.73201,-0.34931 2.64167,-0.49486 h 1.732 25.87089 c 1.17893,0 2.29964,0.0728 3.18747,0.49486 h 0.21104 l -2.21958,-8.3762 h -0.20377 c -0.90966,2.46701 -3.67504,2.81632 -5.9674,2.81632 h -6.24395 z"
         style="fill:#b3b3b3;fill-opacity:1;fill-rule:nonzero;stroke:none;stroke-width:7.27732"
         id="path913" /></g><g
       id="g1286"><path
         d="M 624.07858,-5.1347123 H 513.92172 V 8.4083885 H 630.75189 V 1.6404768 h 73.45003 V -11.909901 h -76.78305 l -3.34029,-6.760635 z"
         style="fill:#b3b3b3;fill-opacity:1;fill-rule:nonzero;stroke:none;stroke-width:7.27732"
         id="path879" /><path
         d="M 797.6566,-11.90408 H 724.22839 V 1.631744 H 797.6566 V 8.406933 H 914.48676 V -5.1288905 H 804.3299 V -34.827652 Z"
         style="fill:#b3b3b3;fill-opacity:1;fill-rule:nonzero;stroke:none;stroke-width:7.27732"
         id="path881" /><path
         d="M 485.01837,-49.146515 H 453.84959 V -59.30566 h 36.95425 z"
         style="fill:#b3b3b3;fill-opacity:1;fill-rule:nonzero;stroke:none;stroke-width:7.27732"
         id="path915" /><path
         d="m 935.66596,-49.146515 5.7782,10.159145 H 717.55727 V 76.518324 h -6.68058 V -38.98737 h -223.916 l 5.78547,-10.159145 z"
         style="fill:#b3b3b3;fill-opacity:1;fill-rule:nonzero;stroke:none;stroke-width:7.27732"
         id="path917" /><path
         d="m 914.48531,-99.929868 v -6.775192 h -36.72138 v 6.775192 h -26.70051 v -6.775192 h -46.73497 v 6.775192 H 624.08367 v -6.775192 H 577.3487 v 6.775192 h -26.70778 v -6.775192 h -36.71411 v 6.775192 l -19.27035,33.854113 H 453.8525 l 10.80683,-20.31829 h 24.3572 l 11.56367,-20.311015 v -10.15187 l 13.34661,-91.41774 v 81.2586 h 26.70051 v -20.31101 l 20.02719,-60.94759 v 91.41774 h 6.68059 v -30.47015 l 20.0272,-60.94759 v 81.2586 h 26.7005 v -81.2586 c 0,50.48279 44.84287,91.41774 100.14326,91.41774 55.30039,0 100.14326,-40.93495 100.14326,-91.41774 v 81.2586 h 26.70051 v -20.31101 l 20.02719,-60.94759 v 91.41774 h 6.67331 v -30.47015 l 20.0272,-60.94759 v 81.2586 h 26.70778 v -81.2586 l 13.34661,91.41774 v 10.15187 l 11.56367,20.311015 h 24.3572 l 10.80683,20.31829 h -40.80396 z"
         style="fill:#b3b3b3;fill-opacity:1;fill-rule:nonzero;stroke:none;stroke-width:7.27732"
         id="path919" /><path
         d="m 943.39448,-49.146515 -5.78547,-10.159145 h 36.95425 v 10.159145 z"
         style="fill:#b3b3b3;fill-opacity:1;fill-rule:nonzero;stroke:none;stroke-width:7.27732"
         id="path921" /><path
         d="M 931.83299,-55.919521 H 496.5835 l 17.34186,-30.470158 v 10.159145 h 400.55849 v -10.159145 z"
         style="fill:#b3b3b3;fill-opacity:1;fill-rule:nonzero;stroke:none;stroke-width:7.27732"
         id="path923" /></g></g></svg>
