<?xml version="1.0" encoding="UTF-8" standalone="no"?>
<svg
   xmlns:dc="http://purl.org/dc/elements/1.1/"
   xmlns:cc="http://creativecommons.org/ns#"
   xmlns:rdf="http://www.w3.org/1999/02/22-rdf-syntax-ns#"
   xmlns:svg="http://www.w3.org/2000/svg"
   xmlns="http://www.w3.org/2000/svg"
   width="297.93649mm"
   height="170.5697mm"
   viewBox="0 0 1055.6805 604.38083"
   id="svg2"
   version="1.1">
  <defs
     id="defs4" />
  <metadata
     id="metadata7">
    <rdf:RDF>
      <cc:Work
         rdf:about="">
        <dc:format>image/svg+xml</dc:format>
        <dc:type
           rdf:resource="http://purl.org/dc/dcmitype/StillImage" />
        <dc:title></dc:title>
      </cc:Work>
    </rdf:RDF>
  </metadata>
  <g
     id="layer1"
     transform="translate(157.27344,-228.79102)">
    <path
       id="path4151"
       transform="translate(-157.27344,228.79102)"
       d="M 302.29688 0 A 302.29669 302.19055 0 0 0 0 302.18945 A 302.29669 302.19055 0 0 0 302.29688 604.38086 A 302.29669 302.19055 0 0 0 601.32031 344.27344 L 522.53516 344.27344 A 224.33601 224.25725 0 0 1 302.29688 526.44727 A 224.33601 224.25725 0 0 1 77.960938 302.18945 A 224.33601 224.25725 0 0 1 302.29688 77.933594 A 224.33601 224.25725 0 0 1 519.83594 248.35352 L 599.50195 248.35352 A 302.29669 302.19055 0 0 0 302.29688 0 z "
       clip-path="none"
       style="opacity:1;fill:#284199;fill-opacity:1;stroke-width:30.89999962;stroke-linecap:round;stroke-linejoin:miter;stroke-miterlimit:0;stroke-dasharray:none" />
    <path
       id="path4151-9"
       transform="translate(-157.27344,228.79102)"
       d="M 301.88281 76.402344 A 225.86759 225.78829 0 0 0 76.015625 302.18945 A 225.86759 225.78829 0 0 0 301.88281 527.97852 A 225.86759 225.78829 0 0 0 523.38086 344.27344 L 463.84766 344.27344 A 167.61756 167.55872 0 0 1 301.88281 469.74805 A 167.61756 167.55872 0 0 1 134.26562 302.18945 A 167.61756 167.55872 0 0 1 301.88281 134.63281 A 167.61756 167.55872 0 0 1 460.2207 248.35352 L 520.77344 248.35352 A 225.86759 225.78829 0 0 0 301.88281 76.402344 z "
       clip-path="none"
       style="opacity:1;fill:#ffffff;fill-opacity:1;stroke-width:30.89999962;stroke-linecap:round;stroke-linejoin:miter;stroke-miterlimit:0;stroke-dasharray:none" />
    <g
       style="font-style:normal;font-weight:normal;font-size:53.13127899px;line-height:125%;font-family:sans-serif;letter-spacing:-10.88999367px;word-spacing:0px;fill:#284199;fill-opacity:1;stroke:none;stroke-width:1px;stroke-linecap:butt;stroke-linejoin:miter;stroke-opacity:1"
       id="text4147">
      <path
         d="m 163.2341,509.08443 0,12.19322 -1.01177,0 q -1.1415,-4.77352 -4.25466,-7.31593 -3.11316,-2.54242 -7.0565,-2.54242 -3.29476,0 -6.04472,1.89384 -2.74996,1.89384 -4.02116,4.95512 -1.63441,3.91739 -1.63441,8.71685 0,4.72162 1.19338,8.61308 1.19337,3.8655 3.73579,5.86311 2.54241,1.97167 6.58952,1.97167 3.32071,0 6.07067,-1.45281 2.7759,-1.4528 5.83717,-5.007 l 0,3.03534 q -2.9575,3.08721 -6.17443,4.48814 -3.19099,1.37498 -7.47159,1.37498 -5.62963,0 -10.014,-2.25705 -4.35842,-2.25704 -6.74518,-6.48575 -2.36081,-4.22871 -2.36081,-9.00222 0,-5.03294 2.62024,-9.54703 2.64619,-4.51408 7.10838,-7.00461 4.48814,-2.49053 9.52109,-2.49053 3.70985,0 7.83479,1.60847 2.38675,0.93395 3.03533,0.93395 0.83017,0 1.42686,-0.59669 0.62263,-0.62263 0.80424,-1.94573 l 1.01177,0 z"
         style="font-style:normal;font-variant:normal;font-weight:bold;font-stretch:normal;font-family:'Times New Roman';-inkscape-font-specification:'Times New Roman, Bold';letter-spacing:0px;word-spacing:0px;fill:#284199;fill-opacity:1"
         id="path4139" />
      <path
         d="m 186.68658,509.39575 q 8.40553,-0.31132 13.64602,4.90323 5.26643,5.21454 5.26643,13.04933 0,6.69329 -3.91739,11.77812 -5.1886,6.74519 -14.6578,6.74519 -9.49514,0 -14.68374,-6.43387 -4.099,-5.08483 -4.099,-12.0635 0,-7.83479 5.31832,-13.04933 5.34426,-5.24049 13.12716,-4.92917 z m 0.31132,1.66035 q -4.8254,0 -7.34188,4.92917 -2.04949,4.04711 -2.04949,11.62247 0,9.00222 3.16504,13.30876 2.20516,3.00939 6.17444,3.00939 2.67213,0 4.4622,-1.29715 2.28298,-1.66035 3.55419,-5.29237 1.27121,-3.65797 1.27121,-9.52109 0,-6.97867 -1.29715,-10.42909 -1.29715,-3.47636 -3.32071,-4.90322 -1.99761,-1.42687 -4.61785,-1.42687 z"
         style="font-style:normal;font-variant:normal;font-weight:bold;font-stretch:normal;font-family:'Times New Roman';-inkscape-font-specification:'Times New Roman, Bold';letter-spacing:0px;word-spacing:0px;fill:#284199;fill-opacity:1"
         id="path4141" />
      <path
         d="m 220.69786,509.88866 17.35587,21.81807 0,-15.12477 q 0,-3.16505 -0.908,-4.2806 -1.24527,-1.50469 -4.17683,-1.4528 l 0,-0.9599 11.62247,0 0,0.9599 q -2.2311,0.28537 -3.00939,0.75234 -0.75235,0.44103 -1.19338,1.47875 -0.41509,1.01178 -0.41509,3.50231 l 0,29.28966 -0.88206,0 -23.78974,-29.28966 0,22.36287 q 0,3.03533 1.37498,4.099 1.40093,1.06366 3.19099,1.06366 l 0.83018,0 0,0.95989 -12.47859,0 0,-0.95989 q 2.90562,-0.0259 4.04711,-1.19338 1.1415,-1.16743 1.1415,-3.96928 l 0,-24.82745 -0.75235,-0.93395 q -1.11555,-1.40093 -1.97167,-1.84196 -0.85612,-0.44103 -2.46459,-0.49291 l 0,-0.9599 12.47859,0 z"
         style="font-style:normal;font-variant:normal;font-weight:bold;font-stretch:normal;font-family:'Times New Roman';-inkscape-font-specification:'Times New Roman, Bold';letter-spacing:0px;word-spacing:0px;fill:#284199;fill-opacity:1"
         id="path4143" />
      <path
         d="m 270.81975,509.08443 0.28538,11.72624 -1.06367,0 q -0.75235,-4.41031 -3.70985,-7.08244 -2.93156,-2.69807 -6.35603,-2.69807 -2.64619,0 -4.20277,1.42686 -1.53064,1.40093 -1.53064,3.24288 0,1.16743 0.5448,2.07544 0.75235,1.21932 2.4127,2.4127 1.21932,0.85612 5.62964,3.03533 6.17443,3.03533 8.3277,5.73341 2.12733,2.69807 2.12733,6.17443 0,4.41031 -3.45042,7.6013 -3.42448,3.16505 -8.71685,3.16505 -1.66035,0 -3.13911,-0.33726 -1.47875,-0.33726 -3.70985,-1.27121 -1.24526,-0.51886 -2.04949,-0.51886 -0.67452,0 -1.42687,0.51886 -0.75235,0.51886 -1.21932,1.58253 l -0.95989,0 0,-13.28282 0.95989,0 q 1.14149,5.60369 4.38437,8.56119 3.26882,2.93156 7.03055,2.93156 2.90562,0 4.61786,-1.58252 1.73818,-1.58253 1.73818,-3.68391 0,-1.24527 -0.67452,-2.4127 -0.64857,-1.16744 -1.99761,-2.20516 -1.34904,-1.06366 -4.77351,-2.74996 -4.79946,-2.36081 -6.90084,-4.02116 -2.10139,-1.66035 -3.24288,-3.70985 -1.11555,-2.0495 -1.11555,-4.51409 0,-4.20276 3.08722,-7.16027 3.08722,-2.9575 7.7829,-2.9575 1.71224,0 3.32071,0.41509 1.21932,0.31132 2.9575,1.16744 1.76412,0.83017 2.46458,0.83017 0.67452,0 1.06367,-0.41509 0.38914,-0.41508 0.7264,-1.99761 l 0.77829,0 z"
         style="font-style:normal;font-variant:normal;font-weight:bold;font-stretch:normal;font-family:'Times New Roman';-inkscape-font-specification:'Times New Roman, Bold';letter-spacing:0px;word-spacing:0px;fill:#284199;fill-opacity:1"
         id="path4145" />
      <path
         d="m 289.91381,511.91222 0,14.32054 0.70046,0 q 3.34665,0 4.85135,-2.10138 1.50469,-2.10139 1.91978,-6.20038 l 0.98583,0 0,18.41953 -0.98583,0 q -0.31132,-3.00939 -1.32309,-4.92917 -0.98584,-1.91978 -2.30893,-2.56836 -1.3231,-0.67451 -3.83957,-0.67451 l 0,9.91022 q 0,2.90562 0.23349,3.5542 0.25943,0.64857 0.93395,1.06366 0.67452,0.41509 2.17921,0.41509 l 2.10138,0 q 4.92918,0 7.88668,-2.28299 2.98344,-2.28298 4.28059,-6.95272 l 0.9599,0 -1.58253,11.18143 -30.4052,0 0,-0.95989 1.16743,0 q 1.53064,0 2.46459,-0.5448 0.67452,-0.3632 1.03772,-1.24527 0.28537,-0.62263 0.28537,-3.26881 l 0,-23.14117 q 0,-2.38675 -0.12971,-2.93156 -0.25943,-0.908 -0.95989,-1.40092 -0.98584,-0.7264 -2.69808,-0.7264 l -1.16743,0 0,-0.9599 29.44531,0 0,10.40315 -0.98583,0 q -0.75235,-3.81362 -2.12733,-5.47397 -1.34904,-1.66036 -3.83956,-2.43865 -1.45281,-0.46697 -5.44804,-0.46697 l -3.63202,0 z"
         style="font-style:normal;font-variant:normal;font-weight:bold;font-stretch:normal;font-family:'Times New Roman';-inkscape-font-specification:'Times New Roman, Bold';letter-spacing:0px;word-spacing:0px;fill:#284199;fill-opacity:1"
         id="path4147" />
      <path
         d="m 330.38489,544.10749 0,0.95989 -18.39359,0 0,-0.95989 1.16743,0 q 1.53064,0 2.46459,-0.5448 0.67452,-0.3632 1.03772,-1.24527 0.28537,-0.62263 0.28537,-3.26881 l 0,-23.14117 q 0,-2.69807 -0.28537,-3.37259 -0.28537,-0.67452 -1.16744,-1.16743 -0.85611,-0.51886 -2.33487,-0.51886 l -1.16743,0 0,-0.9599 18.39359,0 0,0.9599 -1.16743,0 q -1.53064,0 -2.46459,0.5448 -0.67452,0.3632 -1.06366,1.24526 -0.28538,0.62264 -0.28538,3.26882 l 0,23.14117 q 0,2.69807 0.28538,3.37259 0.31131,0.67451 1.16743,1.19337 0.88206,0.49292 2.36082,0.49292 l 1.16743,0 z"
         style="font-style:normal;font-variant:normal;font-weight:bold;font-stretch:normal;font-family:'Times New Roman';-inkscape-font-specification:'Times New Roman, Bold';letter-spacing:0px;word-spacing:0px;fill:#284199;fill-opacity:1"
         id="path4149" />
      <path
         d="m 365.12258,532.71851 -1.32309,12.34887 -31.23539,0 0,-0.95989 1.16744,0 q 1.53064,0 2.46459,-0.5448 0.67451,-0.3632 1.03772,-1.24527 0.28537,-0.62263 0.28537,-3.26881 l 0,-23.14117 q 0,-2.69807 -0.28537,-3.37259 -0.28538,-0.67452 -1.16744,-1.16743 -0.85612,-0.51886 -2.33487,-0.51886 l -1.16744,0 0,-0.9599 18.7568,0 0,0.9599 -1.53064,0 q -1.53064,0 -2.46458,0.5448 -0.67452,0.3632 -1.06367,1.24526 -0.28537,0.62264 -0.28537,3.26882 l 0,22.41476 q 0,2.69807 0.31132,3.45042 0.31131,0.72641 1.21932,1.08961 0.64857,0.23348 3.1391,0.23348 l 2.93156,0 q 2.80184,0 4.66974,-0.98583 1.8679,-0.98583 3.21693,-3.11316 1.37498,-2.12733 2.59431,-6.27821 l 1.06366,0 z"
         style="font-style:normal;font-variant:normal;font-weight:bold;font-stretch:normal;font-family:'Times New Roman';-inkscape-font-specification:'Times New Roman, Bold';letter-spacing:0px;word-spacing:0px;fill:#284199;fill-opacity:1"
         id="path4152" />
      <path
         d="m 412.90959,509.08443 0,12.19322 -1.01177,0 q -1.1415,-4.77352 -4.25466,-7.31593 -3.11316,-2.54242 -7.05649,-2.54242 -3.29477,0 -6.04472,1.89384 -2.74996,1.89384 -4.02117,4.95512 -1.63441,3.91739 -1.63441,8.71685 0,4.72162 1.19338,8.61308 1.19338,3.8655 3.73579,5.86311 2.54242,1.97167 6.58952,1.97167 3.32071,0 6.07067,-1.45281 2.7759,-1.4528 5.83718,-5.007 l 0,3.03534 q -2.95751,3.08721 -6.17444,4.48814 -3.19099,1.37498 -7.47159,1.37498 -5.62963,0 -10.014,-2.25705 -4.35842,-2.25704 -6.74518,-6.48575 -2.36081,-4.22871 -2.36081,-9.00222 0,-5.03294 2.62024,-9.54703 2.64619,-4.51408 7.10838,-7.00461 4.48814,-2.49053 9.52109,-2.49053 3.70985,0 7.83479,1.60847 2.38675,0.93395 3.03533,0.93395 0.83017,0 1.42686,-0.59669 0.62264,-0.62263 0.80424,-1.94573 l 1.01177,0 z"
         style="font-style:normal;font-variant:normal;font-weight:bold;font-stretch:normal;font-family:'Times New Roman';-inkscape-font-specification:'Times New Roman, Bold';letter-spacing:0px;word-spacing:0px;fill:#284199;fill-opacity:1"
         id="path4154" />
      <path
         d="m 436.36207,509.39575 q 8.40553,-0.31132 13.64602,4.90323 5.26643,5.21454 5.26643,13.04933 0,6.69329 -3.91739,11.77812 -5.18861,6.74519 -14.6578,6.74519 -9.49514,0 -14.68375,-6.43387 -4.09899,-5.08483 -4.09899,-12.0635 0,-7.83479 5.31832,-13.04933 5.34425,-5.24049 13.12716,-4.92917 z m 0.31131,1.66035 q -4.8254,0 -7.34187,4.92917 -2.0495,4.04711 -2.0495,11.62247 0,9.00222 3.16505,13.30876 2.20516,3.00939 6.17444,3.00939 2.67213,0 4.46219,-1.29715 2.28299,-1.66035 3.5542,-5.29237 1.2712,-3.65797 1.2712,-9.52109 0,-6.97867 -1.29715,-10.42909 -1.29715,-3.47636 -3.3207,-4.90322 -1.99761,-1.42687 -4.61786,-1.42687 z"
         style="font-style:normal;font-variant:normal;font-weight:bold;font-stretch:normal;font-family:'Times New Roman';-inkscape-font-specification:'Times New Roman, Bold';letter-spacing:0px;word-spacing:0px;fill:#284199;fill-opacity:1"
         id="path4156" />
      <path
         d="m 470.37335,509.88866 17.35587,21.81807 0,-15.12477 q 0,-3.16505 -0.908,-4.2806 -1.24527,-1.50469 -4.17683,-1.4528 l 0,-0.9599 11.62247,0 0,0.9599 q -2.2311,0.28537 -3.00939,0.75234 -0.75234,0.44103 -1.19338,1.47875 -0.41508,1.01178 -0.41508,3.50231 l 0,29.28966 -0.88207,0 -23.78973,-29.28966 0,22.36287 q 0,3.03533 1.37498,4.099 1.40092,1.06366 3.19099,1.06366 l 0.83017,0 0,0.95989 -12.47858,0 0,-0.95989 q 2.90561,-0.0259 4.0471,-1.19338 1.1415,-1.16743 1.1415,-3.96928 l 0,-24.82745 -0.75235,-0.93395 q -1.11555,-1.40093 -1.97167,-1.84196 -0.85612,-0.44103 -2.46458,-0.49291 l 0,-0.9599 12.47858,0 z"
         style="font-style:normal;font-variant:normal;font-weight:bold;font-stretch:normal;font-family:'Times New Roman';-inkscape-font-specification:'Times New Roman, Bold';letter-spacing:0px;word-spacing:0px;fill:#284199;fill-opacity:1"
         id="path4158" />
      <path
         d="m 520.49525,509.08443 0.28537,11.72624 -1.06366,0 q -0.75235,-4.41031 -3.70985,-7.08244 -2.93156,-2.69807 -6.35604,-2.69807 -2.64618,0 -4.20276,1.42686 -1.53064,1.40093 -1.53064,3.24288 0,1.16743 0.5448,2.07544 0.75235,1.21932 2.4127,2.4127 1.21932,0.85612 5.62964,3.03533 6.17443,3.03533 8.3277,5.73341 2.12733,2.69807 2.12733,6.17443 0,4.41031 -3.45042,7.6013 -3.42448,3.16505 -8.71685,3.16505 -1.66036,0 -3.13911,-0.33726 -1.47875,-0.33726 -3.70985,-1.27121 -1.24526,-0.51886 -2.04949,-0.51886 -0.67452,0 -1.42687,0.51886 -0.75235,0.51886 -1.21932,1.58253 l -0.95989,0 0,-13.28282 0.95989,0 q 1.14149,5.60369 4.38437,8.56119 3.26882,2.93156 7.03055,2.93156 2.90562,0 4.61786,-1.58252 1.73818,-1.58253 1.73818,-3.68391 0,-1.24527 -0.67452,-2.4127 -0.64858,-1.16744 -1.99761,-2.20516 -1.34904,-1.06366 -4.77351,-2.74996 -4.79946,-2.36081 -6.90084,-4.02116 -2.10139,-1.66035 -3.24288,-3.70985 -1.11555,-2.0495 -1.11555,-4.51409 0,-4.20276 3.08722,-7.16027 3.08722,-2.9575 7.7829,-2.9575 1.71224,0 3.32071,0.41509 1.21932,0.31132 2.9575,1.16744 1.76412,0.83017 2.46458,0.83017 0.67452,0 1.06367,-0.41509 0.38914,-0.41508 0.7264,-1.99761 l 0.77829,0 z"
         style="font-style:normal;font-variant:normal;font-weight:bold;font-stretch:normal;font-family:'Times New Roman';-inkscape-font-specification:'Times New Roman, Bold';letter-spacing:0px;word-spacing:0px;fill:#284199;fill-opacity:1"
         id="path4160" />
      <path
         d="m 558.63146,509.88866 0,9.52109 -0.93395,0 q -0.83018,-3.29476 -1.84196,-4.72163 -1.01177,-1.45281 -2.7759,-2.30893 -0.98583,-0.46697 -3.45042,-0.46697 l -2.62024,0 0,27.13639 q 0,2.69807 0.28537,3.37259 0.31132,0.67451 1.16744,1.19337 0.88206,0.49292 2.38675,0.49292 l 1.16744,0 0,0.95989 -18.41954,0 0,-0.95989 1.16744,0 q 1.53064,0 2.46458,-0.5448 0.67452,-0.3632 1.06367,-1.24527 0.28537,-0.62263 0.28537,-3.26881 l 0,-27.13639 -2.54241,0 q -3.5542,0 -5.16266,1.50469 -2.25704,2.10139 -2.85373,5.99284 l -0.98584,0 0,-9.52109 31.59859,0 z"
         style="font-style:normal;font-variant:normal;font-weight:bold;font-stretch:normal;font-family:'Times New Roman';-inkscape-font-specification:'Times New Roman, Bold';letter-spacing:0px;word-spacing:0px;fill:#284199;fill-opacity:1"
         id="path4162" />
      <path
         d="m 580.0604,544.10749 0,0.95989 -18.39359,0 0,-0.95989 1.16743,0 q 1.53064,0 2.46459,-0.5448 0.67451,-0.3632 1.03772,-1.24527 0.28537,-0.62263 0.28537,-3.26881 l 0,-23.14117 q 0,-2.69807 -0.28537,-3.37259 -0.28538,-0.67452 -1.16744,-1.16743 -0.85612,-0.51886 -2.33487,-0.51886 l -1.16743,0 0,-0.9599 18.39359,0 0,0.9599 -1.16744,0 q -1.53064,0 -2.46458,0.5448 -0.67452,0.3632 -1.06367,1.24526 -0.28537,0.62264 -0.28537,3.26882 l 0,23.14117 q 0,2.69807 0.28537,3.37259 0.31132,0.67451 1.16744,1.19337 0.88206,0.49292 2.36081,0.49292 l 1.16744,0 z"
         style="font-style:normal;font-variant:normal;font-weight:bold;font-stretch:normal;font-family:'Times New Roman';-inkscape-font-specification:'Times New Roman, Bold';letter-spacing:0px;word-spacing:0px;fill:#284199;fill-opacity:1"
         id="path4164" />
      <path
         d="m 614.77214,509.88866 0,9.52109 -0.93395,0 q -0.83017,-3.29476 -1.84195,-4.72163 -1.01178,-1.45281 -2.7759,-2.30893 -0.98584,-0.46697 -3.45042,-0.46697 l -2.62025,0 0,27.13639 q 0,2.69807 0.28538,3.37259 0.31131,0.67451 1.16743,1.19337 0.88207,0.49292 2.38676,0.49292 l 1.16744,0 0,0.95989 -18.41954,0 0,-0.95989 1.16744,0 q 1.53063,0 2.46458,-0.5448 0.67452,-0.3632 1.06366,-1.24527 0.28538,-0.62263 0.28538,-3.26881 l 0,-27.13639 -2.54242,0 q -3.55419,0 -5.16266,1.50469 -2.25704,2.10139 -2.85373,5.99284 l -0.98583,0 0,-9.52109 31.59858,0 z"
         style="font-style:normal;font-variant:normal;font-weight:bold;font-stretch:normal;font-family:'Times New Roman';-inkscape-font-specification:'Times New Roman, Bold';letter-spacing:0px;word-spacing:0px;fill:#284199;fill-opacity:1"
         id="path4166" />
      <path
         d="m 617.98906,509.88866 18.16011,0 0,0.9599 -0.90801,0 q -2.0495,0 -2.82779,0.44103 -0.75234,0.41509 -1.0896,1.16743 -0.31132,0.75235 -0.31132,3.76174 l 0,17.22616 q 0,4.72162 0.70046,6.25226 0.72641,1.53064 2.36082,2.54242 1.63441,1.01177 4.12493,1.01177 2.85374,0 4.85135,-1.27121 2.02355,-1.29715 3.00939,-3.55419 1.01177,-2.25704 1.01177,-7.86073 l 0,-14.34648 q 0,-2.36081 -0.49291,-3.37259 -0.49292,-1.01178 -1.24527,-1.40092 -1.16743,-0.59669 -3.29476,-0.59669 l 0,-0.9599 12.16727,0 0,0.9599 -0.7264,0 q -1.47876,0 -2.46459,0.59669 -0.98583,0.59668 -1.42687,1.79006 -0.33725,0.83018 -0.33725,2.98345 l 0,13.36065 q 0,6.20038 -0.83018,8.95033 -0.80423,2.74996 -3.96928,5.05889 -3.16505,2.30893 -8.63902,2.30893 -4.56597,0 -7.0565,-1.21932 -3.39853,-1.66035 -4.79946,-4.25466 -1.40092,-2.5943 -1.40092,-6.97866 l 0,-17.22616 q 0,-3.03533 -0.33726,-3.76174 -0.33726,-0.75234 -1.16743,-1.19338 -0.83018,-0.44103 -3.06128,-0.41508 l 0,-0.9599 z"
         style="font-style:normal;font-variant:normal;font-weight:bold;font-stretch:normal;font-family:'Times New Roman';-inkscape-font-specification:'Times New Roman, Bold';letter-spacing:0px;word-spacing:0px;fill:#284199;fill-opacity:1"
         id="path4168" />
      <path
         d="m 688.65782,509.88866 0,9.52109 -0.93395,0 q -0.83017,-3.29476 -1.84195,-4.72163 -1.01178,-1.45281 -2.7759,-2.30893 -0.98583,-0.46697 -3.45042,-0.46697 l -2.62024,0 0,27.13639 q 0,2.69807 0.28537,3.37259 0.31132,0.67451 1.16743,1.19337 0.88207,0.49292 2.38676,0.49292 l 1.16744,0 0,0.95989 -18.41954,0 0,-0.95989 1.16744,0 q 1.53063,0 2.46458,-0.5448 0.67452,-0.3632 1.06367,-1.24527 0.28537,-0.62263 0.28537,-3.26881 l 0,-27.13639 -2.54242,0 q -3.55419,0 -5.16265,1.50469 -2.25705,2.10139 -2.85374,5.99284 l -0.98583,0 0,-9.52109 31.59858,0 z"
         style="font-style:normal;font-variant:normal;font-weight:bold;font-stretch:normal;font-family:'Times New Roman';-inkscape-font-specification:'Times New Roman, Bold';letter-spacing:0px;word-spacing:0px;fill:#284199;fill-opacity:1"
         id="path4170" />
      <path
         d="m 710.08676,544.10749 0,0.95989 -18.39359,0 0,-0.95989 1.16744,0 q 1.53064,0 2.46458,-0.5448 0.67452,-0.3632 1.03772,-1.24527 0.28538,-0.62263 0.28538,-3.26881 l 0,-23.14117 q 0,-2.69807 -0.28538,-3.37259 -0.28537,-0.67452 -1.16743,-1.16743 -0.85612,-0.51886 -2.33487,-0.51886 l -1.16744,0 0,-0.9599 18.39359,0 0,0.9599 -1.16743,0 q -1.53064,0 -2.46459,0.5448 -0.67451,0.3632 -1.06366,1.24526 -0.28537,0.62264 -0.28537,3.26882 l 0,23.14117 q 0,2.69807 0.28537,3.37259 0.31132,0.67451 1.16744,1.19337 0.88206,0.49292 2.36081,0.49292 l 1.16743,0 z"
         style="font-style:normal;font-variant:normal;font-weight:bold;font-stretch:normal;font-family:'Times New Roman';-inkscape-font-specification:'Times New Roman, Bold';letter-spacing:0px;word-spacing:0px;fill:#284199;fill-opacity:1"
         id="path4172" />
      <path
         d="m 731.80106,509.39575 q 8.40554,-0.31132 13.64602,4.90323 5.26643,5.21454 5.26643,13.04933 0,6.69329 -3.91739,11.77812 -5.1886,6.74519 -14.6578,6.74519 -9.49514,0 -14.68374,-6.43387 -4.099,-5.08483 -4.099,-12.0635 0,-7.83479 5.31832,-13.04933 5.34426,-5.24049 13.12716,-4.92917 z m 0.31132,1.66035 q -4.8254,0 -7.34187,4.92917 -2.0495,4.04711 -2.0495,11.62247 0,9.00222 3.16505,13.30876 2.20515,3.00939 6.17443,3.00939 2.67213,0 4.4622,-1.29715 2.28298,-1.66035 3.55419,-5.29237 1.27121,-3.65797 1.27121,-9.52109 0,-6.97867 -1.29715,-10.42909 -1.29715,-3.47636 -3.32071,-4.90322 -1.99761,-1.42687 -4.61785,-1.42687 z"
         style="font-style:normal;font-variant:normal;font-weight:bold;font-stretch:normal;font-family:'Times New Roman';-inkscape-font-specification:'Times New Roman, Bold';letter-spacing:0px;word-spacing:0px;fill:#284199;fill-opacity:1"
         id="path4174" />
      <path
         d="m 765.81235,509.88866 17.35587,21.81807 0,-15.12477 q 0,-3.16505 -0.90801,-4.2806 -1.24526,-1.50469 -4.17682,-1.4528 l 0,-0.9599 11.62247,0 0,0.9599 q -2.2311,0.28537 -3.00939,0.75234 -0.75235,0.44103 -1.19338,1.47875 -0.41509,1.01178 -0.41509,3.50231 l 0,29.28966 -0.88206,0 -23.78974,-29.28966 0,22.36287 q 0,3.03533 1.37498,4.099 1.40092,1.06366 3.19099,1.06366 l 0.83018,0 0,0.95989 -12.47859,0 0,-0.95989 q 2.90562,-0.0259 4.04711,-1.19338 1.14149,-1.16743 1.14149,-3.96928 l 0,-24.82745 -0.75235,-0.93395 q -1.11554,-1.40093 -1.97166,-1.84196 -0.85612,-0.44103 -2.46459,-0.49291 l 0,-0.9599 12.47859,0 z"
         style="font-style:normal;font-variant:normal;font-weight:bold;font-stretch:normal;font-family:'Times New Roman';-inkscape-font-specification:'Times New Roman, Bold';letter-spacing:0px;word-spacing:0px;fill:#284199;fill-opacity:1"
         id="path4176" />
      <path
         d="m 804.20798,509.88866 17.35587,21.81807 0,-15.12477 q 0,-3.16505 -0.90801,-4.2806 -1.24526,-1.50469 -4.17682,-1.4528 l 0,-0.9599 11.62247,0 0,0.9599 q -2.2311,0.28537 -3.00939,0.75234 -0.75235,0.44103 -1.19338,1.47875 -0.41509,1.01178 -0.41509,3.50231 l 0,29.28966 -0.88206,0 -23.78974,-29.28966 0,22.36287 q 0,3.03533 1.37498,4.099 1.40092,1.06366 3.19099,1.06366 l 0.83018,0 0,0.95989 -12.47859,0 0,-0.95989 q 2.90562,-0.0259 4.04711,-1.19338 1.14149,-1.16743 1.14149,-3.96928 l 0,-24.82745 -0.75235,-0.93395 q -1.11554,-1.40093 -1.97166,-1.84196 -0.85612,-0.44103 -2.46459,-0.49291 l 0,-0.9599 12.47859,0 z"
         style="font-style:normal;font-variant:normal;font-weight:bold;font-stretch:normal;font-family:'Times New Roman';-inkscape-font-specification:'Times New Roman, Bold';letter-spacing:0px;word-spacing:0px;fill:#284199;fill-opacity:1"
         id="path4178" />
      <path
         d="m 843.84887,511.91222 0,14.32054 0.70046,0 q 3.34665,0 4.85134,-2.10138 1.5047,-2.10139 1.91979,-6.20038 l 0.98583,0 0,18.41953 -0.98583,0 q -0.31132,-3.00939 -1.3231,-4.92917 -0.98583,-1.91978 -2.30892,-2.56836 -1.3231,-0.67451 -3.83957,-0.67451 l 0,9.91022 q 0,2.90562 0.23349,3.5542 0.25943,0.64857 0.93395,1.06366 0.67451,0.41509 2.17921,0.41509 l 2.10138,0 q 4.92917,0 7.88668,-2.28299 2.98344,-2.28298 4.28059,-6.95272 l 0.95989,0 -1.58252,11.18143 -30.4052,0 0,-0.95989 1.16743,0 q 1.53064,0 2.46459,-0.5448 0.67452,-0.3632 1.03772,-1.24527 0.28537,-0.62263 0.28537,-3.26881 l 0,-23.14117 q 0,-2.38675 -0.12971,-2.93156 -0.25943,-0.908 -0.9599,-1.40092 -0.98583,-0.7264 -2.69807,-0.7264 l -1.16743,0 0,-0.9599 29.44531,0 0,10.40315 -0.98583,0 q -0.75235,-3.81362 -2.12733,-5.47397 -1.34904,-1.66036 -3.83957,-2.43865 -1.4528,-0.46697 -5.44803,-0.46697 l -3.63202,0 z"
         style="font-style:normal;font-variant:normal;font-weight:bold;font-stretch:normal;font-family:'Times New Roman';-inkscape-font-specification:'Times New Roman, Bold';letter-spacing:0px;word-spacing:0px;fill:#284199;fill-opacity:1"
         id="path4180" />
      <path
         d="m 898.40703,532.71851 -1.32309,12.34887 -31.23538,0 0,-0.95989 1.16743,0 q 1.53064,0 2.46459,-0.5448 0.67452,-0.3632 1.03772,-1.24527 0.28537,-0.62263 0.28537,-3.26881 l 0,-23.14117 q 0,-2.69807 -0.28537,-3.37259 -0.28537,-0.67452 -1.16744,-1.16743 -0.85611,-0.51886 -2.33487,-0.51886 l -1.16743,0 0,-0.9599 18.75679,0 0,0.9599 -1.53063,0 q -1.53064,0 -2.46459,0.5448 -0.67452,0.3632 -1.06366,1.24526 -0.28538,0.62264 -0.28538,3.26882 l 0,22.41476 q 0,2.69807 0.31132,3.45042 0.31132,0.72641 1.21932,1.08961 0.64858,0.23348 3.1391,0.23348 l 2.93156,0 q 2.80185,0 4.66975,-0.98583 1.86789,-0.98583 3.21693,-3.11316 1.37498,-2.12733 2.5943,-6.27821 l 1.06366,0 z"
         style="font-style:normal;font-variant:normal;font-weight:bold;font-stretch:normal;font-family:'Times New Roman';-inkscape-font-specification:'Times New Roman, Bold';letter-spacing:0px;word-spacing:0px;fill:#284199;fill-opacity:1"
         id="path4182" />
    </g>
    <path
       id="path4151-6-6"
       transform="translate(-157.27344,228.79102)"
       d="M 302.29688 132.91406 A 169.33601 169.27657 0 0 0 132.96094 302.18945 A 169.33601 169.27657 0 0 0 302.29688 471.4668 A 169.33601 169.27657 0 0 0 466.17969 344.27344 L 383.42383 344.27344 A 91.478874 91.446754 0 0 1 302.29688 393.63672 A 91.478874 91.446754 0 0 1 210.81836 302.18945 A 91.478874 91.446754 0 0 1 302.29688 210.74414 A 91.478874 91.446754 0 0 1 376.10352 248.35352 L 462.67383 248.35352 A 169.33601 169.27657 0 0 0 302.29688 132.91406 z "
       clip-path="none"
       style="opacity:1;fill:#ec2427;fill-opacity:1;stroke-width:30.89999962;stroke-linecap:round;stroke-linejoin:miter;stroke-miterlimit:0;stroke-dasharray:none" />
    <rect
       y="178.06915"
       x="-267.45367"
       height="678.1637"
       width="1492.131"
       id="rect4174"
       style="opacity:0;fill:#6bff43;fill-opacity:1;stroke-width:30.89999962;stroke-linecap:round;stroke-linejoin:miter;stroke-miterlimit:0;stroke-dasharray:none" />
  </g>
</svg>
