<?xml version="1.0" encoding="UTF-8" standalone="no"?>
<!-- Generator: Adobe Illustrator 20.0.0, SVG Export Plug-In . SVG Version: 6.00 Build 0)  -->
<svg xmlns:dc="http://purl.org/dc/elements/1.1/" xmlns:cc="http://creativecommons.org/ns#" xmlns:rdf="http://www.w3.org/1999/02/22-rdf-syntax-ns#" xmlns:svg="http://www.w3.org/2000/svg" xmlns="http://www.w3.org/2000/svg" xmlns:sodipodi="http://sodipodi.sourceforge.net/DTD/sodipodi-0.dtd" xmlns:inkscape="http://www.inkscape.org/namespaces/inkscape" version="1.1" id="Logo" x="0px" y="0px" width="237.8" height="74.599998" viewBox="0 0 237.8 74.599998" enable-background="new 0 0 530 76" xml:space="preserve" inkscape:version="0.91 r13725" sodipodi:docname="logo-header-lg.svg"><metadata id="metadata86"><rdf:RDF><cc:Work rdf:about=""><dc:format>image/svg+xml</dc:format><dc:type rdf:resource="http://purl.org/dc/dcmitype/StillImage"/><dc:title/></cc:Work></rdf:RDF></metadata><defs id="defs84"/><sodipodi:namedview pagecolor="#ffffff" bordercolor="#666666" borderopacity="1" objecttolerance="10" gridtolerance="10" guidetolerance="10" inkscape:pageopacity="0" inkscape:pageshadow="2" inkscape:window-width="1280" inkscape:window-height="669" id="namedview82" showgrid="false" fit-margin-top="0" fit-margin-left="0" fit-margin-right="0" fit-margin-bottom="0" inkscape:zoom="3.0415094" inkscape:cx="138.48003" inkscape:cy="5.6546958" inkscape:window-x="0" inkscape:window-y="1" inkscape:window-maximized="1" inkscape:current-layer="Group-126"/><g id="Group-126" transform="translate(-63,-0.2)" style="fill:#000000"><path id="Fill-90" d="m 69.1,30.8 c 2,0 3.4,1.1 4.1,2.7 l 1.6,0 C 74,31 71.9,29.4 69.1,29.4 c -3.4,0 -6.1,2.9 -6.1,6.5 0,3.6 2.7,6.5 6.1,6.5 2.7,0 4.8,-1.6 5.7,-4.2 l -1.6,0 c -0.7,1.6 -2.3,2.7 -4.1,2.7 -2.5,0 -4.6,-2.3 -4.6,-5 0,-2.8 2.1,-5.1 4.6,-5.1" style="fill:#000000" inkscape:connector-curvature="0"/><path id="Fill-92" d="m 80.3,32.6 c -2.6,0 -4.6,2.2 -4.6,4.9 0,2.6 2,4.8 4.6,4.8 2.6,0 4.6,-2.1 4.6,-4.8 0,-2.7 -2,-4.9 -4.6,-4.9 m 0,8.3 c -1.7,0 -3.1,-1.5 -3.1,-3.4 0,-1.9 1.4,-3.5 3.1,-3.5 1.7,0 3.1,1.6 3.1,3.5 0,1.9 -1.4,3.4 -3.1,3.4" style="fill:#000000" inkscape:connector-curvature="0"/><path id="Fill-94" d="m 92.6,38.5 c 0,1.4 -1,2.4 -2.4,2.4 -1.5,0 -2.3,-1 -2.3,-2.4 l 0,-5.6 -1.5,0 0,5.5 c 0,2.3 1.3,3.9 3.5,3.9 1.1,0 2,-0.5 2.7,-1.2 0,1 1.2,1 1.2,1 l 0.3,0 0,-9.2 -1.5,0 0,5.6 z" style="fill:#000000" inkscape:connector-curvature="0"/><path id="Fill-96" d="m 97.7,33.9 0,0 c 0,-0.2 -0.1,-1 -1.1,-1 l -0.3,0 0,9.2 1.5,0 0,-5.3 c 0,-1.8 1.4,-2.7 2.9,-2.6 l 0,-1.5 c -1.1,-0.2 -2.3,0.2 -3,1.2" style="fill:#000000" inkscape:connector-curvature="0"/><path id="Fill-98" d="m 114.3,34.3 c -0.7,-0.9 -1.8,-1.6 -3.1,-1.6 -2.6,0 -4.6,2.2 -4.6,4.8 0,2.7 2,4.8 4.6,4.8 1.4,0 2.5,-0.8 3.2,-1.7 l 0,0.5 c 0,1 1.2,1 1.2,1 l 0.3,0 0,-13.3 -1.5,0 0,5.5 z m -3.1,6.6 c -1.7,0 -3.1,-1.5 -3.1,-3.4 0,-1.9 1.4,-3.5 3.1,-3.5 1.7,0 3.1,1.5 3.1,3.5 0,1.9 -1.4,3.4 -3.1,3.4 l 0,0 z" style="fill:#000000" inkscape:connector-curvature="0"/><path id="Fill-100" d="m 122,32.6 c -2.5,0 -4.6,2.2 -4.6,4.8 0,2.7 2.1,4.8 4.7,4.8 2.1,0 3.7,-1.1 4.3,-3.1 l -1.6,0 c -0.5,1.1 -1.4,1.7 -2.7,1.7 -1.5,0 -3,-1.1 -3.2,-3 l 7.7,0 c 0.1,-3.2 -2.2,-5.2 -4.6,-5.2 l 0,0 z m -3,3.9 c 0.4,-1.6 1.7,-2.5 3,-2.5 1.3,0 2.6,1 3,2.5 l -6,0 z" style="fill:#000000" inkscape:connector-curvature="0"/><path id="Fill-102" d="m 131.6,36.5 c -1.8,-0.3 -2.3,-0.5 -2.3,-1.2 0,-0.7 0.9,-1.3 2.1,-1.3 1.1,0 2,0.5 2.2,1.5 l 1.5,0 c -0.2,-1.8 -1.6,-2.9 -3.7,-2.9 -2.5,0 -3.6,1.4 -3.6,2.7 0,1.7 1.4,2.3 3.6,2.6 2.2,0.3 2.5,0.8 2.5,1.4 0,0.8 -0.9,1.5 -2.3,1.5 -1.3,0 -2.4,-0.7 -2.6,-1.7 l -1.5,0 c 0.2,2 1.9,3.1 4.1,3.1 2.2,0 3.8,-1.2 3.8,-3 -0.1,-2 -1.8,-2.4 -3.8,-2.7" style="fill:#000000" inkscape:connector-curvature="0"/><path id="Fill-104" d="m 146,34 c 1.2,0 2.1,0.7 2.7,1.7 l 1.6,0 c -0.6,-1.9 -2.2,-3.1 -4.3,-3.1 -2.5,0 -4.6,2.2 -4.6,4.8 0,2.6 2.1,4.8 4.6,4.8 2,0 3.7,-1.2 4.3,-3.1 l -1.6,0 c -0.5,1 -1.4,1.7 -2.7,1.7 -1.7,0 -3.1,-1.5 -3.1,-3.4 0,-1.8 1.4,-3.4 3.1,-3.4" style="fill:#000000" inkscape:connector-curvature="0"/><path id="Fill-106" d="m 155.7,32.6 c -2.6,0 -4.6,2.2 -4.6,4.9 0,2.6 2,4.8 4.6,4.8 2.6,0 4.6,-2.1 4.6,-4.8 0,-2.7 -2,-4.9 -4.6,-4.9 m 0,8.3 c -1.7,0 -3.1,-1.5 -3.1,-3.4 0,-1.9 1.4,-3.5 3.1,-3.5 1.7,0 3.1,1.6 3.1,3.5 0,1.9 -1.4,3.4 -3.1,3.4" style="fill:#000000" inkscape:connector-curvature="0"/><path id="Fill-108" d="m 171.4,32.6 c -1.3,0 -2.3,0.6 -2.9,1.6 -0.6,-1 -1.5,-1.6 -2.8,-1.6 -1,0 -1.9,0.5 -2.4,1.2 0,0 0,-1 -1.1,-1 l -0.3,0 0,9.2 1.5,0 0,-5.6 c 0,-1.4 0.9,-2.4 2.2,-2.4 1.4,0 2.1,0.9 2.1,2.3 l 0,5.7 1.5,0 0,-5.6 c 0,-1.4 0.9,-2.4 2.2,-2.4 1.4,0 2.1,0.9 2.1,2.3 l 0,5.7 1.5,0 0,-5.7 c -0.1,-2.2 -1.4,-3.7 -3.6,-3.7" style="fill:#000000" inkscape:connector-curvature="0"/><path id="Fill-110" d="m 181.6,32.6 c -1.4,0 -2.5,0.8 -3.2,1.7 l 0,-0.5 c 0,-1 -1.2,-1 -1.2,-1 l -0.2,0 0,13.3 1.5,0 0,-5.5 c 0.7,0.9 1.8,1.6 3.1,1.6 2.6,0 4.6,-2.2 4.6,-4.8 0,-2.6 -2,-4.8 -4.6,-4.8 m 0,8.3 c -1.7,0 -3.1,-1.6 -3.1,-3.5 0,-1.9 1.4,-3.4 3.1,-3.4 1.7,0 3.1,1.5 3.1,3.4 0,1.9 -1.4,3.5 -3.1,3.5" style="fill:#000000" inkscape:connector-curvature="0"/><path id="Fill-112" d="m 189.4,38.7 0,-4.4 2.1,0 0,-1.4 -2.1,0 0,-2 -1.5,0 0,2 -1.2,0 0,0.3 c 0,1.1 1.2,1.1 1.2,1.1 l 0,4.4 c 0,2.3 1.5,3.6 3.6,3.4 l 0,-1.4 c -1.1,0 -2.1,-0.4 -2.1,-2" style="fill:#000000" inkscape:connector-curvature="0"/><path id="Fill-114" d="m 196.5,32.6 c -2.5,0 -4.6,2.2 -4.6,4.8 0,2.7 2.1,4.8 4.7,4.8 2.1,0 3.7,-1.1 4.3,-3.1 l -1.6,0 c -0.5,1.1 -1.4,1.7 -2.7,1.7 -1.5,0 -3,-1.1 -3.2,-3 l 7.7,0 c 0,-3.2 -2.3,-5.2 -4.6,-5.2 l 0,0 z m -3,3.9 c 0.4,-1.6 1.7,-2.5 3,-2.5 1.3,0 2.6,1 3,2.5 l -6,0 z" style="fill:#000000" inkscape:connector-curvature="0"/><path id="Fill-116" d="m 206,36.5 c -1.8,-0.3 -2.3,-0.5 -2.3,-1.2 0,-0.7 0.9,-1.3 2.1,-1.3 1.1,0 2,0.5 2.2,1.5 l 1.5,0 c -0.2,-1.8 -1.6,-2.9 -3.7,-2.9 -2.5,0 -3.6,1.4 -3.6,2.7 0,1.7 1.4,2.3 3.6,2.6 2.2,0.3 2.5,0.8 2.5,1.4 0,0.8 -0.9,1.5 -2.3,1.5 -1.3,0 -2.4,-0.7 -2.6,-1.7 l -1.5,0 c 0.2,2 1.9,3.1 4.1,3.1 2.2,0 3.8,-1.2 3.8,-3 -0.1,-2 -1.7,-2.4 -3.8,-2.7" style="fill:#000000" inkscape:connector-curvature="0"/><path id="Fill-118" d="M 263.6,65 C 248.5,65 236.2,52.7 236.2,37.5 236.2,22.3 248.5,10 263.6,10 278.7,10 291,22.3 291,37.5 291,52.6 278.7,65 263.6,65 m 0,-54.1 c -14.6,0 -26.5,11.9 -26.5,26.6 0,14.7 12,26.5 26.5,26.5 14.6,0 26.5,-11.9 26.5,-26.6 0,-14.7 -11.9,-26.5 -26.5,-26.5" style="fill:#000000" inkscape:connector-curvature="0"/><path id="Combined-Shape" d="m 263.6,74.8 c -20.5,0 -37.2,-16.7 -37.2,-37.3 0,-20.6 16.7,-37.3 37.2,-37.3 20.5,0 37.2,16.7 37.2,37.3 0,20.5 -16.7,37.3 -37.2,37.3 m 0,-73 c -19.6,0 -35.5,16 -35.5,35.7 0,19.7 15.9,35.7 35.5,35.7 19.6,0 35.5,-16 35.5,-35.7 0,-19.7 -15.9,-35.7 -35.5,-35.7 z m 15.1,45.1 c -4.9,4.7 -9.4,6.3 -14,6.3 -1.8,0 -6.5,-0.8 -9,-4.4 -2.2,-3.3 -3,-7.9 -3,-10.9 0,-8.6 2.8,-16.8 11.5,-16.8 6.8,0 12.4,6 14.5,10.4 l 0.9,0 0,-12 -0.9,0 c -0.6,0.8 -2.4,2.3 -3.5,2.3 -1.2,0 -5.8,-2.4 -11.4,-2.4 -12.5,0 -19.6,8 -19.6,18.3 0,9.5 6,17.9 19.9,17.9 7.6,0 12.3,-3.2 16.6,-7.5 l -2,-1.2 z m -6.8,-18.2 -0.2,0 c -0.4,0.5 -1.2,1.3 -1.7,1.3 -0.7,0 -2.7,-1.5 -5,-1.5 -5.5,0 -8.7,3.5 -8.7,8.3 0,4.4 2.8,8.5 8.8,8.5 3.3,0 5.4,-1.5 7.3,-3.5 l -0.8,-0.6 c -2.2,2.2 -4.1,2.9 -6.2,2.9 -0.8,0 -2.9,-0.4 -4,-2.1 -1,-1.5 -1.1,-3.8 -1.1,-5.2 0,-4 1,-7.6 4.8,-7.6 2.5,0 5.6,3.5 6.5,4.5 l 0.2,0 0,-5 z m -9.7,-21.4 2.9,0 0,-2.9 -2.9,0 0,2.9 z m -31.5,31.6 2.9,0 0,-2.9 -2.9,0 0,2.9 z m 62.9,0 2.9,0 0,-2.9 -2.9,0 0,2.9 z m -50.1,-23.8 -2.1,2.1 -2.1,-2.1 2.1,-2.1 2.1,2.1 z m 40.3,0 2.1,2.1 2.1,-2.1 -2.1,-2.1 -2.1,2.1 z m -21.6,55.4 2.9,0 0,-2.9 -2.9,0 0,2.9 z m -18.7,-10.7 -2.1,-2.1 -2.1,2.1 2.1,2.1 2.1,-2.1 z m 40.3,0 2.1,-2.1 2.1,2.1 -2.1,2.1 -2.1,-2.1 z M 252.6,8.3 c 0,0.6 -0.5,1 -1,1 -0.6,0 -1,-0.5 -1,-1 0,-0.5 0.5,-1 1,-1 0.6,-0.1 1,0.4 1,1 z m -17,17.1 c 0,0.6 -0.5,1 -1,1 -0.5,0 -1,-0.5 -1,-1 0,-0.6 0.5,-1 1,-1 0.5,0 1,0.4 1,1 z M 274.7,8.3 c 0,0.6 0.5,1 1,1 0.6,0 1,-0.5 1,-1 0,-0.5 -0.5,-1 -1,-1 -0.6,-0.1 -1,0.4 -1,1 z m 17,17.1 c 0,0.6 0.5,1 1,1 0.6,0 1,-0.5 1,-1 0,-0.6 -0.5,-1 -1,-1 -0.6,-0.1 -1,0.4 -1,1 z m -39.1,41.2 c 0,-0.6 -0.5,-1 -1,-1 -0.6,0 -1,0.5 -1,1 0,0.6 0.5,1 1,1 0.6,0.1 1,-0.4 1,-1 z m -17,-17.1 c 0,-0.6 -0.5,-1 -1,-1 -0.5,0 -1,0.5 -1,1 0,0.5 0.5,1 1,1 0.5,0 1,-0.4 1,-1 z m 39.1,17.1 c 0,-0.6 0.5,-1 1,-1 0.6,0 1,0.5 1,1 0,0.6 -0.5,1 -1,1 -0.6,0.1 -1,-0.4 -1,-1 z m 17,-17.1 c 0,-0.6 0.5,-1 1,-1 0.6,0 1,0.5 1,1 0,0.5 -0.5,1 -1,1 -0.6,0.1 -1,-0.4 -1,-1 z" style="fill:#000000" inkscape:connector-curvature="0"/></g></svg>